<svg width="738" height="241" viewBox="0 0 738 241" fill="none" xmlns="http://www.w3.org/2000/svg">
<path d="M218.287 231.83H208.226V203.449H218.37C221.225 203.449 223.682 204.017 225.742 205.153C227.802 206.28 229.387 207.902 230.495 210.017C231.613 212.133 232.172 214.665 232.172 217.612C232.172 220.568 231.613 223.109 230.495 225.234C229.387 227.358 227.793 228.989 225.714 230.125C223.645 231.262 221.169 231.83 218.287 231.83ZM214.226 226.689H218.037C219.811 226.689 221.303 226.374 222.513 225.746C223.733 225.109 224.647 224.125 225.257 222.795C225.876 221.455 226.186 219.727 226.186 217.612C226.186 215.514 225.876 213.801 225.257 212.47C224.647 211.14 223.737 210.161 222.527 209.532C221.317 208.904 219.825 208.59 218.051 208.59H214.226V226.689Z" fill="#212121"/>
<path d="M245.386 231.83H235.325V203.449H245.469C248.324 203.449 250.781 204.017 252.841 205.153C254.902 206.28 256.486 207.902 257.595 210.017C258.713 212.133 259.272 214.665 259.272 217.612C259.272 220.568 258.713 223.109 257.595 225.234C256.486 227.358 254.892 228.989 252.814 230.125C250.744 231.262 248.268 231.83 245.386 231.83ZM241.325 226.689H245.136C246.91 226.689 248.402 226.374 249.613 225.746C250.832 225.109 251.747 224.125 252.356 222.795C252.975 221.455 253.285 219.727 253.285 217.612C253.285 215.514 252.975 213.801 252.356 212.47C251.747 211.14 250.837 210.161 249.626 209.532C248.416 208.904 246.924 208.59 245.15 208.59H241.325V226.689Z" fill="#212121"/>
<path d="M262.462 231.83V203.449H273.825C275.913 203.449 277.655 203.758 279.05 204.377C280.445 204.996 281.494 205.855 282.196 206.955C282.898 208.045 283.249 209.301 283.249 210.724C283.249 211.833 283.027 212.808 282.584 213.648C282.14 214.48 281.531 215.163 280.754 215.699C279.988 216.226 279.11 216.6 278.121 216.822V217.099C279.202 217.145 280.214 217.45 281.156 218.014C282.108 218.577 282.879 219.367 283.471 220.383C284.062 221.39 284.358 222.591 284.358 223.986C284.358 225.492 283.983 226.836 283.235 228.019C282.496 229.192 281.401 230.121 279.951 230.804C278.5 231.488 276.713 231.83 274.588 231.83H262.462ZM268.462 226.924H273.354C275.027 226.924 276.246 226.605 277.013 225.968C277.78 225.321 278.163 224.462 278.163 223.39C278.163 222.605 277.974 221.912 277.595 221.312C277.216 220.711 276.676 220.24 275.973 219.898C275.281 219.556 274.454 219.385 273.493 219.385H268.462V226.924ZM268.462 215.325H272.911C273.733 215.325 274.463 215.182 275.1 214.895C275.747 214.6 276.255 214.184 276.625 213.648C277.004 213.112 277.193 212.47 277.193 211.722C277.193 210.697 276.828 209.87 276.098 209.241C275.378 208.613 274.352 208.299 273.022 208.299H268.462V215.325Z" fill="#212121"/>
<path d="M295.435 208.396V203.449H318.744V208.396H310.055V231.83H304.124V208.396H295.435Z" fill="#212121"/>
<path d="M317.757 231.83V203.449H336.88V208.396H323.757V215.159H335.897V220.106H323.757V226.883H336.936V231.83H317.757Z" fill="#212121"/>
<path d="M340.32 231.83V203.449H346.321V226.883H358.488V231.83H340.32Z" fill="#212121"/>
<path d="M361.486 231.83V203.449H367.486V215.963H367.86L378.074 203.449H385.266L374.734 216.157L385.391 231.83H378.212L370.438 220.161L367.486 223.765V231.83H361.486Z" fill="#212121"/>
<path d="M410.546 217.639C410.546 220.734 409.959 223.367 408.786 225.538C407.622 227.709 406.033 229.368 404.019 230.513C402.014 231.65 399.76 232.218 397.256 232.218C394.734 232.218 392.47 231.645 390.466 230.5C388.461 229.354 386.876 227.696 385.712 225.525C384.548 223.353 383.966 220.725 383.966 217.639C383.966 214.544 384.548 211.911 385.712 209.74C386.876 207.569 388.461 205.916 390.466 204.779C392.47 203.634 394.734 203.061 397.256 203.061C399.76 203.061 402.014 203.634 404.019 204.779C406.033 205.916 407.622 207.569 408.786 209.74C409.959 211.911 410.546 214.544 410.546 217.639ZM404.462 217.639C404.462 215.635 404.162 213.944 403.561 212.567C402.97 211.191 402.134 210.147 401.053 209.435C399.972 208.724 398.706 208.368 397.256 208.368C395.806 208.368 394.54 208.724 393.459 209.435C392.378 210.147 391.537 211.191 390.937 212.567C390.346 213.944 390.05 215.635 390.05 217.639C390.05 219.644 390.346 221.335 390.937 222.711C391.537 224.088 392.378 225.132 393.459 225.843C394.54 226.555 395.806 226.91 397.256 226.91C398.706 226.91 399.972 226.555 401.053 225.843C402.134 225.132 402.97 224.088 403.561 222.711C404.162 221.335 404.462 219.644 404.462 217.639Z" fill="#212121"/>
<path d="M413.303 203.449H420.703L428.519 222.517H428.852L436.667 203.449H444.068V231.83H438.247V213.357H438.012L430.667 231.691H426.704L419.359 213.288H419.123V231.83H413.303V203.449Z" fill="#212121"/>
<path d="M212.55 175.55V194.513H208.541V175.55H212.55Z" fill="#212121"/>
<path d="M233.662 175.55V194.513H230.199L221.949 182.578H221.81V194.513H217.801V175.55H221.32L229.505 187.476H229.672V175.55H233.662Z" fill="#212121"/>
<path d="M237.753 178.855V175.55H253.327V178.855H247.521V194.513H243.558V178.855H237.753Z" fill="#212121"/>
<path d="M253.971 194.513V175.55H266.749V178.855H257.98V183.374H266.092V186.68H257.98V191.208H266.786V194.513H253.971Z" fill="#212121"/>
<path d="M270.374 194.513V175.55H277.856C279.288 175.55 280.51 175.806 281.522 176.318C282.541 176.825 283.316 177.544 283.847 178.476C284.384 179.402 284.652 180.491 284.652 181.744C284.652 183.004 284.381 184.087 283.837 184.994C283.294 185.896 282.507 186.587 281.476 187.069C280.451 187.55 279.211 187.791 277.754 187.791H272.745V184.568H277.106C277.871 184.568 278.507 184.464 279.013 184.254C279.519 184.044 279.896 183.729 280.143 183.309C280.396 182.889 280.522 182.368 280.522 181.744C280.522 181.115 280.396 180.584 280.143 180.152C279.896 179.72 279.516 179.392 279.004 179.17C278.498 178.942 277.859 178.828 277.087 178.828H274.383V194.513H270.374ZM280.615 185.883L285.328 194.513H280.902L276.291 185.883H280.615Z" fill="#212121"/>
<path d="M303.924 175.55V194.513H300.461L292.211 182.578H292.072V194.513H288.062V175.55H291.581L299.766 187.476H299.933V175.55H303.924Z" fill="#212121"/>
<path d="M319.024 181.004C318.949 180.257 318.632 179.676 318.07 179.263C317.508 178.849 316.746 178.642 315.783 178.642C315.128 178.642 314.576 178.735 314.125 178.92C313.675 179.099 313.329 179.349 313.088 179.67C312.854 179.991 312.736 180.355 312.736 180.763C312.724 181.102 312.795 181.399 312.949 181.652C313.11 181.905 313.329 182.124 313.607 182.309C313.885 182.488 314.206 182.646 314.57 182.781C314.934 182.911 315.323 183.022 315.736 183.115L317.44 183.522C318.267 183.707 319.027 183.954 319.718 184.263C320.409 184.572 321.008 184.951 321.514 185.402C322.021 185.852 322.413 186.383 322.69 186.994C322.974 187.606 323.119 188.306 323.125 189.096C323.119 190.257 322.823 191.263 322.237 192.115C321.656 192.961 320.817 193.618 319.718 194.087C318.625 194.55 317.307 194.782 315.764 194.782C314.233 194.782 312.9 194.547 311.764 194.078C310.635 193.609 309.752 192.914 309.116 191.995C308.486 191.069 308.156 189.924 308.125 188.559H312.005C312.048 189.195 312.23 189.726 312.551 190.152C312.878 190.572 313.314 190.89 313.857 191.106C314.406 191.316 315.027 191.42 315.718 191.42C316.397 191.42 316.986 191.322 317.486 191.124C317.993 190.927 318.385 190.652 318.662 190.3C318.94 189.948 319.079 189.544 319.079 189.087C319.079 188.661 318.953 188.303 318.699 188.013C318.453 187.723 318.088 187.476 317.607 187.272C317.132 187.069 316.548 186.883 315.857 186.717L313.792 186.198C312.193 185.809 310.931 185.201 310.005 184.374C309.079 183.547 308.619 182.433 308.625 181.031C308.619 179.883 308.925 178.88 309.542 178.022C310.165 177.164 311.02 176.494 312.107 176.013C313.193 175.531 314.428 175.291 315.811 175.291C317.218 175.291 318.446 175.531 319.496 176.013C320.551 176.494 321.372 177.164 321.959 178.022C322.545 178.88 322.848 179.874 322.866 181.004H319.024Z" fill="#212121"/>
<path d="M325.555 194.513V175.55H329.565V183.374H337.704V175.55H341.704V194.513H337.704V186.68H329.565V194.513H325.555Z" fill="#212121"/>
<path d="M349.785 175.55V194.513H345.776V175.55H349.785Z" fill="#212121"/>
<path d="M355.036 194.513V175.55H362.517C363.956 175.55 365.181 175.824 366.193 176.374C367.206 176.917 367.977 177.673 368.508 178.642C369.045 179.605 369.314 180.717 369.314 181.976C369.314 183.235 369.042 184.346 368.499 185.309C367.956 186.272 367.169 187.022 366.138 187.559C365.113 188.096 363.872 188.365 362.415 188.365H357.647V185.152H361.767C362.539 185.152 363.175 185.019 363.675 184.754C364.181 184.482 364.557 184.109 364.804 183.633C365.057 183.152 365.184 182.599 365.184 181.976C365.184 181.346 365.057 180.797 364.804 180.328C364.557 179.852 364.181 179.485 363.675 179.226C363.169 178.96 362.527 178.828 361.749 178.828H359.045V194.513H355.036Z" fill="#212121"/>
<path fill-rule="evenodd" clip-rule="evenodd" d="M35.8693 149.931C31.1827 149.931 27.1008 148.381 24.0016 145.282C22.7165 143.997 21.3559 142.183 20.6378 140.331C19.126 136.362 19.126 135.266 19.126 131.147C19.126 126.725 21.0914 122.303 24.0016 119.392C25.5134 117.881 26.874 116.974 28.9906 116.066C30.011 115.651 31.0693 115.311 32.2032 115.122C36.0583 114.479 39.4599 114.706 42.937 116.218C44.0331 116.671 45.8851 117.805 46.7543 118.637C48.2662 120.148 48.115 119.77 49.6268 122C53.8221 128.237 53.1795 139.537 47.7748 144.866C44.4866 148.155 40.9339 149.931 35.8693 149.931ZM52.348 102.309C50.4961 101.326 47.5102 100.268 45.4315 99.7389C34.1307 96.942 21.9984 98.983 12.852 106.164C8.7323 109.414 6.12442 113.156 3.78111 117.881C2.00474 121.509 0.795288 127.292 0.795288 131.487C0.795288 135.607 0.870879 136.967 1.77797 140.974C2.45828 143.959 3.62993 146.681 5.10395 149.326C5.89765 150.762 7.9008 153.748 9.11025 154.996C9.56379 155.411 9.75277 155.6 10.1307 156.054C10.4709 156.507 10.8488 156.696 11.2646 157.112C12.8142 158.662 15.3843 160.476 17.4252 161.572C22.5654 164.369 26.3827 165.351 32.2788 165.994C35.9071 166.372 40.5181 166.107 44.0709 165.276C48.7575 164.142 52.1213 162.857 56.0898 160.211C56.9969 159.607 57.6772 159.115 58.5465 158.435C58.7732 158.208 58.8488 158.133 59.1134 157.944C59.378 157.717 59.4158 157.717 59.6425 157.452C60.7008 156.394 61.6457 155.676 62.8551 154.202C64.9339 151.518 66.3701 149.402 67.7307 146.265C69.4693 142.221 70.6032 137.648 70.6032 131.94V69.4271H52.348V102.309Z" fill="#329F8A"/>
<path fill-rule="evenodd" clip-rule="evenodd" d="M388.31 114.857C389.822 114.29 390.351 116.067 390.88 117.125L394.206 123.928C395.113 125.704 395.038 125.478 397.268 125.818C398.742 126.044 400.216 126.233 401.69 126.46C403.013 126.649 404.789 126.8 406.036 127.103C406.679 127.254 407.17 127.707 407.208 128.463C407.246 129.37 406.641 129.635 406.263 130.089C405.432 131.033 404.6 131.752 403.769 132.545C402.861 133.377 402.181 134.057 401.198 135.078C400.632 135.682 398.931 136.816 398.969 137.95L400.405 146.567C400.669 148.004 401.123 149.855 399.347 149.969C398.591 150.007 393.564 147.172 392.581 146.643C388.537 144.451 389.255 144.337 385.74 146.227C384.682 146.832 383.51 147.474 382.414 148.004C380.071 149.137 378.37 150.725 377.198 149.478C376.632 148.873 376.821 148.306 376.934 147.512C377.463 144.678 377.917 141.767 378.408 138.933C378.559 138.101 378.748 137.496 378.219 136.892L371.907 130.655C371.34 130.164 369.413 128.766 370.773 127.481C371.454 126.838 373.835 126.763 374.969 126.574C376.405 126.385 377.841 126.158 379.277 125.969C383.057 125.402 382.187 126.158 384.644 121.282C385.211 120.111 385.74 118.977 386.307 117.843C386.912 116.596 387.365 115.159 388.31 114.857ZM353.879 131.487C353.879 138.781 355.202 144.375 358.792 150.347C359.51 151.556 360.758 153.333 361.702 154.353C363.139 155.865 364.084 157.112 365.898 158.473C366.162 158.662 366.389 158.851 366.654 159.078L368.279 160.211C368.884 160.627 369.375 160.892 369.98 161.27C375.082 164.369 381.205 165.881 387.252 166.07C388.159 166.107 388.726 166.296 389.822 166.145C390.276 166.07 390.691 166.07 391.145 166.07C393.602 166.07 399.12 165.011 401.576 164.029C402.937 163.5 404.222 163.046 405.469 162.404C405.469 163.084 405.469 163.764 405.469 164.482C405.469 165.011 405.243 166.183 405.809 166.183H423.347C423.611 166.183 423.687 166.107 423.687 165.843V132.848C423.687 120.904 418.924 112.4 411.97 106.542C410.458 105.257 409.816 104.879 408.266 103.859C405.205 101.855 401.236 100.419 397.721 99.55C392.279 98.1893 385.476 98.3405 380.033 99.5122C374.666 100.646 370.206 102.838 365.973 106.164L364.31 107.638C357.772 113.383 353.879 122.605 353.879 131.487Z" fill="#212121"/>
<path fill-rule="evenodd" clip-rule="evenodd" d="M140.033 133.074C140.033 128.426 140.638 125.629 142.792 122.038L144.606 119.695C147.592 116.709 150.313 115.537 154.395 114.933C159.309 114.177 164.978 115.877 168.38 119.279C171.252 122.189 173.255 126.725 173.255 130.996C173.255 134.926 173.255 136.438 171.781 140.142C169.324 146.227 163.315 149.931 156.739 149.931C149.898 149.931 143.926 146.265 141.469 140.066C140.713 138.139 140.033 135.72 140.033 133.074ZM121.702 132.281C121.702 139.424 124.008 147.663 128.581 153.181C129.224 153.975 129.791 154.769 130.546 155.487C131.794 156.734 132.436 157.414 133.91 158.586L136.367 160.4C141.432 163.764 146.194 165.087 152.203 165.918L156.172 166.183L160.216 165.956C166.868 165.616 173.52 162.895 178.811 158.926L181.117 156.999C184.783 153.333 185.992 151.632 188.298 147.096C192.342 139.122 192.569 126.687 188.676 118.372C188.373 117.729 188.146 117.2 187.806 116.558C187.58 116.029 186.975 115.197 186.861 114.744H191.472V98.605H155.265C152.732 98.605 149.86 99.0208 147.857 99.5121C143.813 100.457 142.074 101.213 138.672 102.914L136.027 104.501C126.843 110.775 121.702 120.829 121.702 132.281Z" fill="#329F8A"/>
<path fill-rule="evenodd" clip-rule="evenodd" d="M242.572 115.424C242.572 118.977 242.534 121.018 244.159 124.23C244.613 125.175 245.028 125.893 245.633 126.687C253.079 136.589 272.543 136.665 276.89 142.485C279.535 145.962 277.759 151.67 269.331 151.67C265.4 151.67 262.49 150.8 260.109 149.251C258.975 148.495 257.992 147.474 257.161 146.416C256.48 145.471 255.346 143.43 255.271 142.448L247.334 145.433C246.011 145.962 244.688 146.454 243.328 146.983L239.359 148.533C239.85 149.591 239.964 150.385 241.135 152.728C244.461 159.304 251.794 163.688 258.861 165.162C262.376 165.881 263.435 165.956 266.912 166.07C268.008 166.107 268.197 166.334 269.822 166.107C270.313 166.032 270.805 166.07 271.296 166.07C273.715 166.07 278.137 165.2 280.329 164.596C281.765 164.218 283.466 163.575 284.676 162.97C287.359 161.61 288.153 161.194 290.194 159.38C290.761 158.851 291.176 158.586 291.705 157.906C292.31 157.112 293.066 156.394 293.671 155.336C296.808 150.082 297.639 143.544 295.523 137.61C294.994 136.136 294.313 134.926 293.406 133.717C284.487 121.698 261.016 124.381 261.016 115.688C261.016 109.225 271.712 109.074 275.869 112.589C277.003 113.534 278.099 115.046 278.628 116.407C278.742 116.709 278.779 116.898 278.931 117.162L292.839 111.833C295.183 110.926 294.994 111.304 294.087 109.15C292.461 105.219 289.324 102.044 285.583 100.003C284.524 99.4365 283.315 98.9074 282.143 98.4538C280.858 98.0003 279.724 97.6601 278.25 97.32C276.928 96.9798 275.567 96.8286 274.017 96.6019C271.183 96.1861 266.609 96.2617 263.888 96.6019C257.841 97.3956 252.134 99.1719 247.863 103.405C244.726 106.542 242.572 110.926 242.572 115.424Z" fill="#212121"/>
<path fill-rule="evenodd" clip-rule="evenodd" d="M309.583 142.221C309.583 147.663 311.132 152.69 313.816 156.772C314.761 158.17 315.63 159.002 316.764 160.174C317.293 160.703 317.898 161.156 318.465 161.572C320.543 163.008 322.282 163.915 324.776 164.747C330.483 166.637 338.836 166.183 345.375 166.183C345.639 166.183 345.715 166.107 345.715 165.843V149.818C340.499 149.818 333.961 150.498 330.937 146.907C329.312 144.942 328.405 142.712 328.405 139.877V115.424H345.11V99.5121H328.972V69.4271H309.583V142.221Z" fill="#212121"/>
<path fill-rule="evenodd" clip-rule="evenodd" d="M155.491 210.479C162.068 210.479 166.036 209.874 171.592 207.569C173.217 206.888 175.523 205.603 176.959 204.621C178.358 203.714 181.646 201.181 182.666 199.821C183.535 198.725 184.405 197.931 185.463 196.381C189.545 190.372 191.472 184.174 191.472 176.69H173.255C173.255 183.38 170.194 189.767 164.184 192.64C159.573 194.832 153.639 194.756 149.028 192.602L146.534 191.052C145.173 190.07 143.586 188.293 142.717 186.819C142.15 185.912 141.772 185.194 141.356 184.136C140.449 181.944 140.033 179.449 140.033 176.69H121.702C121.702 187.386 126.049 195.399 131.416 200.766C133.759 203.109 135.838 204.507 138.635 206.095C142.981 208.627 149.633 210.479 155.491 210.479Z" fill="#329F8A"/>
<path fill-rule="evenodd" clip-rule="evenodd" d="M437.52 131.94V165.843C437.52 166.107 437.595 166.183 437.86 166.183H455.51C456.077 166.183 455.85 165.011 455.85 164.482V132.394C455.85 129.559 456.304 127.178 457.098 125.1C457.816 123.248 458.95 121.244 460.348 119.808C462.578 117.465 465.261 115.877 468.55 115.235C469.23 115.084 469.721 115.008 470.439 114.895L472.48 114.744V98.605C466.735 98.605 462.389 99.4365 457.324 101.553C454.339 102.8 451.957 104.312 449.539 106.24C446.213 108.848 443.076 112.778 441.148 116.633C440.128 118.637 439.447 120.526 438.805 122.718C438.049 125.289 437.52 128.955 437.52 131.94Z" fill="#212121"/>
<path fill-rule="evenodd" clip-rule="evenodd" d="M88.8204 165.843C88.8204 166.107 88.896 166.183 89.1606 166.183H107.265C107.529 166.183 107.605 166.107 107.605 165.843V99.5121H88.8204V165.843Z" fill="#329F8A"/>
<path fill-rule="evenodd" clip-rule="evenodd" d="M208.556 165.843C208.556 166.107 208.631 166.183 208.896 166.183H227C227.265 166.183 227.34 166.107 227.34 165.843V99.5121H208.556V165.843Z" fill="#329F8A"/>
<path fill-rule="evenodd" clip-rule="evenodd" d="M208.556 86.4727H227C227.265 86.4727 227.34 86.3971 227.34 86.1326V69.4271H208.556V86.4727Z" fill="#329F8A"/>
<path fill-rule="evenodd" clip-rule="evenodd" d="M88.8204 86.4727H107.265C107.529 86.4727 107.605 86.3971 107.605 86.1326V69.7672C107.605 69.5027 107.529 69.4271 107.265 69.4271H88.8204V86.4727Z" fill="#329F8A"/>
<path fill-rule="evenodd" clip-rule="evenodd" d="M706.546 88.6271C726.162 88.4759 739.655 72.8665 737.576 52.4948C718.376 52.3437 704.203 68.3311 706.546 88.6271Z" fill="#329F8A"/>
<path fill-rule="evenodd" clip-rule="evenodd" d="M705.866 102.574C707.794 108.356 709.154 114.517 709.835 120.904C714.446 165.2 684.663 205.112 643.353 210.026C641.161 210.29 639.006 210.441 636.814 210.517C680.921 201.37 711.762 157.263 706.66 108.583C706.471 106.542 706.206 104.539 705.866 102.574Z" fill="#329F8A"/>
<path fill-rule="evenodd" clip-rule="evenodd" d="M638.099 200.01C704.241 150.8 711.195 64.098 653.444 0.186157C587.869 47.5814 579.63 137.043 638.099 200.01Z" fill="#329F8A"/>
<path fill-rule="evenodd" clip-rule="evenodd" d="M638.099 200.01C663.082 124.533 620.6 52.1546 539.605 33.6349C514.017 107.411 557.066 182.624 638.099 200.01Z" fill="#679A91"/>
<path fill-rule="evenodd" clip-rule="evenodd" d="M638.099 200.01C655.069 148.759 640.896 98.9452 604.726 66.4413C590.893 110.057 601.211 160.287 638.099 200.01Z" fill="#13624F"/>
<path fill-rule="evenodd" clip-rule="evenodd" d="M638.099 200.01C617.917 136.816 553.778 108.885 490.055 136.136C508.991 198.385 574.906 228.016 638.099 200.01Z" fill="#828888"/>
<path fill-rule="evenodd" clip-rule="evenodd" d="M638.099 200.01C602.194 164.029 548.676 167.468 514.811 208.362C549.545 244.155 604.839 241.244 638.099 200.01Z" fill="#838383"/>
<path fill-rule="evenodd" clip-rule="evenodd" d="M638.099 200.01C623.548 154.504 586.206 127.254 542.628 125.78C558.616 161.874 592.291 190.183 638.099 200.01Z" fill="#34534D"/>
<path fill-rule="evenodd" clip-rule="evenodd" d="M638.099 200.01C607.485 169.32 564.058 167.317 530.912 192.753C560.165 212.747 599.624 217.055 638.099 200.01Z" fill="#434746"/>
<path fill-rule="evenodd" clip-rule="evenodd" d="M607.674 151.707C614.137 168.677 624.228 185.081 638.099 200.01C631.787 180.281 621.205 163.953 607.674 151.707Z" fill="#08342A"/>
<path fill-rule="evenodd" clip-rule="evenodd" d="M582.389 175.216C597.923 186.781 616.669 195.399 638.099 200.01C621.961 183.833 602.269 175.632 582.389 175.216Z" fill="#1B2C29"/>
</svg>
